<?xml version="1.0" encoding="utf-8"?>
<!-- Generator: Adobe Illustrator 22.0.0, SVG Export Plug-In . SVG Version: 6.00 Build 0)  -->
<svg version="1.1" xmlns="http://www.w3.org/2000/svg" xmlns:xlink="http://www.w3.org/1999/xlink" x="0px" y="0px"
	 viewBox="0 0 1920 1080" style="enable-background:new 0 0 1920 1080;" xml:space="preserve">
<style type="text/css">
	.st0{fill:#4D3F27;}
	.st1{fill:#968A73;}
	.st2{fill:#EDE0D4;}
	.st3{fill:#656D4A;}
	.st4{fill:#414833;}
	.st5{fill:#BD92BC;}
	.st6{fill:#D2504C;}
	.st7{fill:#E8A27C;}
	.st8{fill:#ED7A48;}
	.st9{fill:#C4C95B;}
	.st10{fill:none;stroke:#EDE0D4;stroke-width:2;stroke-miterlimit:10;}
	.st11{clip-path:url(#SVGID_2_);}
	.st12{fill:none;stroke:#E8A27C;stroke-miterlimit:10;}
	.st13{display:none;}
	.st14{display:inline;}
	.st15{fill:none;stroke:#968A73;stroke-miterlimit:10;}
	.st16{display:inline;fill:none;stroke:#968A73;stroke-miterlimit:10;}
</style>
<g id="Fondos">
</g>
<g id="Gráficos_1_">
	<g>
		<defs>
			<rect id="SVGID_1_" width="1920" height="1080"/>
		</defs>
		<clipPath id="SVGID_2_">
			<use xlink:href="#SVGID_1_"  style="overflow:visible;"/>
		</clipPath>
		<g class="st11">
			<path class="st3" d="M1819.7,604c155.9,2,155.8,115.8,155.8,115.8s4.9,5.9,12.3,18.5c7.5,12.6-5.5,12.5-5.5,12.5
				s3.2-10.8-16.4-28.9C1875.2,739.3,1822.8,670.3,1819.7,604z"/>
			<path class="st3" d="M299,346.8c34.2,138.8,135.8,115,135.8,115s6.3,3.1,19.1,7.1s10-7.5,10-7.5s-9,5.1-29.2-8.7
				C431.3,368.2,358.8,335.7,299,346.8z"/>
			<path class="st3" d="M-65.6,544.7c170.8,69.8,223.3-54.2,223.3-54.2s8-4.2,22-14.5c14-10.3-0.3-16.2-0.3-16.2
				s-1.5,13.3-31.2,23.9C57.3,422.9-31.7,473.8-65.6,544.7z"/>
			<path class="st3" d="M156,656.4c103.7,30.5,126.8-44.9,126.8-44.9s4.4-2.9,11.9-9.8c7.5-6.9-1.1-9.4-1.1-9.4s-0.1,7.8-16.8,15.8
				C220.3,578.1,171.5,613.1,156,656.4z"/>
			<path class="st3" d="M1505.1,329.9c56.2,179.4,187.6,139.9,187.6,139.9s8.5,3.6,25.7,7.8c17.2,4.2,12.5-10.7,12.5-10.7
				s-11.4,7.5-39-9C1680.5,347.1,1582.7,310.5,1505.1,329.9z"/>
			<path class="st3" d="M1391.5,794.6c142.2,14.4,154-89.2,154-89.2s5-4.9,13.1-15.6c8.1-10.7-3.7-11.9-3.7-11.9s1.8,10.2-18,24.6
				C1456.1,677.2,1401.2,734.6,1391.5,794.6z"/>
			<path class="st3" d="M498,843.4c171.2,50.4,209.4-74.1,209.4-74.1s7.3-4.8,19.7-16.1c12.4-11.3-1.8-15.5-1.8-15.5
				s-0.1,12.9-27.7,26C604.2,714.1,523.7,771.9,498,843.4z"/>
		</g>
	</g>
</g>
<g id="Texto">
</g>
<g id="Anotaciones_para_Carmelo">
</g>
<g id="Cuadrícula" class="st13">
	<g class="st14">
		<rect class="st15" width="192" height="108"/>
		<rect x="192" class="st15" width="192" height="108"/>
		<rect x="384" class="st15" width="192" height="108"/>
		<rect x="576" class="st15" width="192" height="108"/>
		<rect x="768" class="st15" width="192" height="108"/>
		<rect x="960" class="st15" width="192" height="108"/>
		<rect x="1152" class="st15" width="192" height="108"/>
		<rect x="1344" class="st15" width="192" height="108"/>
		<rect x="1536" class="st15" width="192" height="108"/>
		<rect x="1728" class="st15" width="192" height="108"/>
	</g>
	<g class="st14">
		<rect y="108" class="st15" width="192" height="108"/>
		<rect x="192" y="108" class="st15" width="192" height="108"/>
		<rect x="384" y="108" class="st15" width="192" height="108"/>
		<rect x="576" y="108" class="st15" width="192" height="108"/>
		<rect x="768" y="108" class="st15" width="192" height="108"/>
		<rect x="960" y="108" class="st15" width="192" height="108"/>
		<rect x="1152" y="108" class="st15" width="192" height="108"/>
		<rect x="1344" y="108" class="st15" width="192" height="108"/>
		<rect x="1536" y="108" class="st15" width="192" height="108"/>
		<rect x="1728" y="108" class="st15" width="192" height="108"/>
	</g>
	<g class="st14">
		<rect y="216" class="st15" width="192" height="108"/>
		<rect x="192" y="216" class="st15" width="192" height="108"/>
		<rect x="384" y="216" class="st15" width="192" height="108"/>
		<rect x="576" y="216" class="st15" width="192" height="108"/>
		<rect x="768" y="216" class="st15" width="192" height="108"/>
		<rect x="960" y="216" class="st15" width="192" height="108"/>
		<rect x="1152" y="216" class="st15" width="192" height="108"/>
		<rect x="1344" y="216" class="st15" width="192" height="108"/>
		<rect x="1536" y="216" class="st15" width="192" height="108"/>
		<rect x="1728" y="216" class="st15" width="192" height="108"/>
	</g>
	<g class="st14">
		<rect y="324" class="st15" width="192" height="108"/>
		<rect x="192" y="324" class="st15" width="192" height="108"/>
		<rect x="384" y="324" class="st15" width="192" height="108"/>
		<rect x="576" y="324" class="st15" width="192" height="108"/>
		<rect x="768" y="324" class="st15" width="192" height="108"/>
		<rect x="960" y="324" class="st15" width="192" height="108"/>
		<rect x="1152" y="324" class="st15" width="192" height="108"/>
		<rect x="1344" y="324" class="st15" width="192" height="108"/>
		<rect x="1536" y="324" class="st15" width="192" height="108"/>
		<rect x="1728" y="324" class="st15" width="192" height="108"/>
	</g>
	<g class="st14">
		<rect y="432" class="st15" width="192" height="108"/>
		<rect x="192" y="432" class="st15" width="192" height="108"/>
		<rect x="384" y="432" class="st15" width="192" height="108"/>
		<rect x="576" y="432" class="st15" width="192" height="108"/>
		<rect x="768" y="432" class="st15" width="192" height="108"/>
		<rect x="960" y="432" class="st15" width="192" height="108"/>
		<rect x="1152" y="432" class="st15" width="192" height="108"/>
		<rect x="1344" y="432" class="st15" width="192" height="108"/>
		<rect x="1536" y="432" class="st15" width="192" height="108"/>
		<rect x="1728" y="432" class="st15" width="192" height="108"/>
	</g>
	<g class="st14">
		<rect y="540" class="st15" width="192" height="108"/>
		<rect x="192" y="540" class="st15" width="192" height="108"/>
		<rect x="384" y="540" class="st15" width="192" height="108"/>
		<rect x="576" y="540" class="st15" width="192" height="108"/>
		<rect x="768" y="540" class="st15" width="192" height="108"/>
		<rect x="960" y="540" class="st15" width="192" height="108"/>
		<rect x="1152" y="540" class="st15" width="192" height="108"/>
		<rect x="1344" y="540" class="st15" width="192" height="108"/>
		<rect x="1536" y="540" class="st15" width="192" height="108"/>
		<rect x="1728" y="540" class="st15" width="192" height="108"/>
	</g>
	<g class="st14">
		<rect y="648" class="st15" width="192" height="108"/>
		<rect x="192" y="648" class="st15" width="192" height="108"/>
		<rect x="384" y="648" class="st15" width="192" height="108"/>
		<rect x="576" y="648" class="st15" width="192" height="108"/>
		<rect x="768" y="648" class="st15" width="192" height="108"/>
		<rect x="960" y="648" class="st15" width="192" height="108"/>
		<rect x="1152" y="648" class="st15" width="192" height="108"/>
		<rect x="1344" y="648" class="st15" width="192" height="108"/>
		<rect x="1536" y="648" class="st15" width="192" height="108"/>
		<rect x="1728" y="648" class="st15" width="192" height="108"/>
	</g>
	<g class="st14">
		<rect y="756" class="st15" width="192" height="108"/>
		<rect x="192" y="756" class="st15" width="192" height="108"/>
		<rect x="384" y="756" class="st15" width="192" height="108"/>
		<rect x="576" y="756" class="st15" width="192" height="108"/>
		<rect x="768" y="756" class="st15" width="192" height="108"/>
		<rect x="960" y="756" class="st15" width="192" height="108"/>
		<rect x="1152" y="756" class="st15" width="192" height="108"/>
		<rect x="1344" y="756" class="st15" width="192" height="108"/>
		<rect x="1536" y="756" class="st15" width="192" height="108"/>
		<rect x="1728" y="756" class="st15" width="192" height="108"/>
	</g>
	<g class="st14">
		<rect y="864" class="st15" width="192" height="108"/>
		<rect x="192" y="864" class="st15" width="192" height="108"/>
		<rect x="384" y="864" class="st15" width="192" height="108"/>
		<rect x="576" y="864" class="st15" width="192" height="108"/>
		<rect x="768" y="864" class="st15" width="192" height="108"/>
		<rect x="960" y="864" class="st15" width="192" height="108"/>
		<rect x="1152" y="864" class="st15" width="192" height="108"/>
		<rect x="1344" y="864" class="st15" width="192" height="108"/>
		<rect x="1536" y="864" class="st15" width="192" height="108"/>
		<rect x="1728" y="864" class="st15" width="192" height="108"/>
	</g>
	<g class="st14">
		<rect y="972" class="st15" width="192" height="108"/>
		<rect x="192" y="972" class="st15" width="192" height="108"/>
		<rect x="384" y="972" class="st15" width="192" height="108"/>
		<rect x="576" y="972" class="st15" width="192" height="108"/>
		<rect x="768" y="972" class="st15" width="192" height="108"/>
		<rect x="960" y="972" class="st15" width="192" height="108"/>
		<rect x="1152" y="972" class="st15" width="192" height="108"/>
		<rect x="1344" y="972" class="st15" width="192" height="108"/>
		<rect x="1536" y="972" class="st15" width="192" height="108"/>
		<rect x="1728" y="972" class="st15" width="192" height="108"/>
	</g>
	<rect x="95.5" y="53.5" class="st16" width="1728" height="972"/>
</g>
</svg>
