<?xml version="1.0" encoding="utf-8"?>
<!-- Generator: Adobe Illustrator 22.0.0, SVG Export Plug-In . SVG Version: 6.00 Build 0)  -->
<svg version="1.1" xmlns="http://www.w3.org/2000/svg" xmlns:xlink="http://www.w3.org/1999/xlink" x="0px" y="0px"
	 viewBox="0 0 640.3 261.1" style="enable-background:new 0 0 640.3 261.1;" xml:space="preserve">
<style type="text/css">
	.st0{fill:#4D3F27;}
	.st1{fill:#968A73;}
	.st2{fill:#EDE0D4;}
	.st3{fill:#656D4A;}
	.st4{fill:#414833;}
	.st5{fill:#BD92BC;}
	.st6{fill:#D2504C;}
	.st7{fill:#E8A27C;}
	.st8{fill:#ED7A48;}
	.st9{fill:#C4C95B;}
	.st10{fill:none;stroke:#EDE0D4;stroke-width:2;stroke-miterlimit:10;}
	.st11{clip-path:url(#SVGID_2_);}
	.st12{fill:none;stroke:#E8A27C;stroke-miterlimit:10;}
	.st13{display:none;}
	.st14{display:inline;}
	.st15{fill:none;stroke:#968A73;stroke-miterlimit:10;}
	.st16{display:inline;fill:none;stroke:#968A73;stroke-miterlimit:10;}
</style>
<g id="Fondos">
</g>
<g id="Gráficos_1_">
	<g>
		<path class="st2" d="M34.6,52.4c-2.2-1-3.7-2.7-4.4-5.1c-0.7-2.4-1.1-6.1-1.1-11.1c0-5.7,0.3-11,0.8-15.9
			C30.4,15.5,31.2,10,32.2,4c0.2-1,0.7-1.8,1.5-2.5c0.9-0.6,2-0.9,3.4-0.9c1.4,0,2.5,0.4,3.2,1.1c0.7,0.7,1.1,1.6,1.1,2.8
			c0,0.6,0,1-0.1,1.2c-1.2,7-2,12.7-2.5,17c-0.5,4.3-0.8,8.9-0.8,13.8c0,2.7,0.1,4.7,0.4,6c0.3,1.3,0.8,2.2,1.7,2.7
			c0.8,0.5,2.2,0.8,4,0.8c3.7,0,9.1-0.7,16.2-2c0.2,0,0.5-0.1,1-0.1c1.2,0,2.1,0.4,2.7,1.2c0.6,0.8,0.9,1.8,0.9,2.9
			c0,2.2-1.6,3.7-4.9,4.3c-2.8,0.6-5.3,1-7.5,1.2c-2.2,0.3-4.7,0.4-7.4,0.4C40.3,53.9,36.8,53.4,34.6,52.4z"/>
		<path class="st2" d="M114.3,49.5c0.2,0.5,0.2,0.9,0.2,1.2c0,1.3-0.5,2.2-1.5,2.9c-1,0.7-2.3,1-3.7,1c-1.1,0-2.1-0.2-2.9-0.7
			c-0.8-0.5-1.3-1.1-1.6-2L102,41.5l-17.4-0.1c-0.4,1.2-0.7,2.4-1,3.4c-0.3,1.1-0.6,2.1-0.9,3l-1.1,3.9c-0.3,1-0.8,1.7-1.6,2.2
			c-0.8,0.5-1.7,0.7-2.8,0.7c-1.4,0-2.6-0.4-3.7-1.1c-1-0.7-1.5-1.6-1.5-2.8c0-0.3,0-0.7,0.2-1.3l10.7-32.2l2.6-8.1
			c1.1-3.3,2.2-5.6,3.5-7C90.1,0.7,91.8,0,93.8,0c2,0,3.5,0.6,4.7,1.9c1.2,1.3,2.2,3.5,3.2,6.6c2.2,6.5,4.7,14.8,7.6,24.7h2.1
			c1.1,0,1.9,0.4,2.5,1.1c0.6,0.7,0.9,1.7,0.9,3.1c0,2.8-0.9,4.2-2.6,4.2h-0.4L114.3,49.5z M99.6,33c-1.5-5.6-2.8-10.3-3.9-14
			c-0.1-0.4-0.2-0.7-0.3-0.9c-0.1-0.3-0.2-0.5-0.2-0.8c-0.4-1.4-0.7-2.4-1-3.1c-0.3-0.7-0.5-1-0.8-1c-0.3,0-0.5,0.3-0.8,1
			c-0.3,0.7-0.5,1.5-0.8,2.4c-0.3,1-0.4,1.7-0.5,2l-4.3,14.3L99.6,33z"/>
		<path class="st2" d="M70.6,149.8c0.3,0.8,0.4,1.4,0.4,2c0,2.1-0.9,3.7-2.6,4.8c-1.7,1.1-3.8,1.7-6.1,1.7c-1.8,0-3.4-0.4-4.8-1.1
			c-1.3-0.8-2.2-1.9-2.6-3.4l-4.8-17.4L21,136.3c-0.6,2-1.2,3.9-1.7,5.7c-0.5,1.8-1,3.5-1.4,5l-1.9,6.4c-0.5,1.6-1.4,2.8-2.7,3.6
			c-1.3,0.8-2.8,1.2-4.6,1.2c-2.4,0-4.4-0.6-6.1-1.8c-1.7-1.2-2.6-2.7-2.6-4.7c0-0.4,0.1-1.1,0.3-2.1l17.9-53.6l4.4-13.5
			c1.8-5.5,3.7-9.4,5.8-11.7c2.1-2.3,4.8-3.5,8.2-3.5c3.3,0,5.9,1,7.8,3.1c1.9,2.1,3.7,5.7,5.4,10.9c3.6,10.9,7.8,24.6,12.7,41.2H66
			c1.8,0,3.1,0.6,4.2,1.8c1,1.2,1.5,2.9,1.5,5.2c0,4.7-1.5,7-4.4,7h-0.6L70.6,149.8z M46.2,122.4c-2.5-9.4-4.7-17.2-6.5-23.4
			c-0.2-0.6-0.3-1.1-0.5-1.5c-0.2-0.4-0.3-0.8-0.4-1.3c-0.7-2.3-1.2-4.1-1.6-5.2c-0.4-1.1-0.8-1.6-1.3-1.6c-0.4,0-0.8,0.5-1.3,1.6
			c-0.4,1.1-0.8,2.4-1.3,4c-0.4,1.7-0.7,2.8-0.9,3.3l-7.2,23.9L46.2,122.4z"/>
		<path class="st2" d="M94.8,155.2c-2.3-1.3-4-3-5.1-5.2c-1.2-2.2-3-6.9-5.5-14.1c-2.5-7.2-5.1-15.6-8-25.2
			c-0.3-1.1-1.5-5.5-3.8-13.1c-2.1-7.7-4.2-14.9-6.3-21.6c-0.3-0.8-0.4-1.4-0.4-1.9c0-1.9,0.8-3.5,2.5-4.7c1.6-1.2,3.5-1.8,5.7-1.8
			c3.6,0,5.8,1.3,6.7,3.8c2.2,7,4.5,15.1,7,24l3.4,12.2c3.4,11.8,5.8,19.8,7.2,23.8c1.5,4,2.7,6,3.8,6c1.2-0.1,2.5-2.2,3.9-6.4
			c1.4-4.2,3.6-12,6.5-23.5c3.4-13.7,6.6-25.7,9.6-36.1c0.8-2.5,3-3.8,6.5-3.8c2.6,0,4.7,0.5,6.3,1.6c1.6,1,2.4,2.6,2.4,4.7
			c0,1.1-0.1,1.9-0.3,2.5c-0.9,3.6-3.4,12.5-7.4,26.8c-1,3.7-1.7,6-2,7c-2.6,9.2-5.1,17.6-7.5,25c-2.4,7.5-4,12.2-5,14.2
			c-1.1,2.3-2.8,4-5.2,5.3c-2.4,1.3-4.9,2-7.7,2C99.7,157.1,97.2,156.5,94.8,155.2z"/>
		<path class="st2" d="M208.2,140.9c2.2,0,3.9,0.6,5,1.9c1.2,1.3,1.8,3,1.8,5.2c0,1.9-0.5,3.4-1.4,4.5c-0.9,1.1-2.4,1.8-4.4,2.2
			c-3.5,0.8-10.4,1.1-20.5,1.1h-3.9c-5,0-9.5-0.1-13.7-0.3c-4.2-0.2-9.3-0.7-15.2-1.4c-3.2-0.3-4.8-2.5-4.8-6.4
			c0-1.8,0.4-3.4,1.1-4.7c0.8-1.3,1.8-2,3.3-2.1h1.5c1.1-7,1.6-14.7,1.6-23.3h-1.1c-3.6,0-5.4-2.3-5.4-6.9c0-2,0.4-3.7,1.3-5
			c0.8-1.3,2.1-2,3.9-2h1.4V90.4v-7.7c-2.7-0.9-4-3-4-6.2c0-2.3,0.6-4,1.9-5.1c1.3-1,3.1-1.7,5.7-2c4.4-0.4,11.8-0.6,22.2-0.6
			c10.8,0,19.1,0.3,24.8,1c2.1,0.3,3.7,0.9,4.9,1.9c1.2,1,1.8,2.6,1.8,4.8c0,2.1-0.5,3.8-1.6,5.1c-1.1,1.3-2.6,1.9-4.4,1.8
			c-7.9-0.7-15-1-21.3-1c-5.8,0-10.7,0.1-14.7,0.4l0.4,13.8l0.1,7.2h4.7c6.4,0.2,10.7,0.3,13.1,0.3l9.7,0.3c2.9,0,4.4,2.2,4.4,6.7
			c0,2.2-0.4,3.9-1.3,5.1c-0.8,1.2-2.1,1.8-3.7,1.8c-2.6,0-4.8,0-6.5-0.1l-15.9-0.1h-4.5c-0.3,9-0.8,17-1.8,23.9
			c5,0.3,9.8,0.5,14.5,0.5c7,0,13.6-0.4,19.9-1.1L208.2,140.9z"/>
		<path class="st2" d="M306.2,75.3c0,8.2,0,14.3-0.1,18.1l-0.1,19.6c0,11.9-0.3,20.9-1,26.8c-0.7,6-1.8,10.1-3.5,12.3
			c-1.7,2.3-4.2,3.4-7.6,3.4c-2.9,0-5.6-1.1-8.2-3.3c-2.6-2.2-5.6-5.6-9-10.3c-3.4-4.7-8-11.8-14-21.3l-1.5-2.4
			c-6.8-11.2-12-19.5-15.7-25c0.2,7.9,0.3,15.2,0.3,21.9l0.1,34.1c0,1.8-0.7,3.4-2.2,4.7c-1.5,1.3-3.3,1.9-5.6,1.9
			c-2.3,0-4.1-0.6-5.6-1.8c-1.5-1.2-2.2-2.8-2.2-4.7v-34.6l-0.1-15.5c-0.1-3-0.1-7.3-0.1-12.7c0-4.8,0.3-8.5,0.8-11.1
			c0.5-2.6,1.4-4.5,2.7-5.7c1.3-1.2,3.2-1.8,5.6-1.8c2.9,0,5.5,1,8,3.1c2.5,2.1,5.2,5.4,8.3,9.8c3.1,4.4,7.9,12,14.7,22.8l10.7,17
			c4.3,6.9,7.4,11.7,9.4,14.6c0.3-9.8,0.4-17.3,0.4-22.4l0.1-39.1c0-2,0.6-3.6,2-4.8c1.3-1.2,3.3-1.8,5.9-1.8
			C303.6,67.1,306.2,69.8,306.2,75.3z"/>
		<path class="st2" d="M382.6,72c1.2,1,1.8,2.7,1.8,5.1c0,2.4-0.7,4.2-2.1,5.4c-1.4,1.2-3.3,1.7-5.9,1.5c-7-0.4-12.5-0.7-16.6-0.8
			c-0.7,8.6-1.2,19.1-1.6,31.2c-0.3,13.8-0.5,25.9-0.5,36.5c0,2.7-0.5,4.6-1.6,5.7c-1.1,1.1-3,1.6-6,1.6c-3,0-5.2-0.6-6.5-1.8
			c-1.3-1.2-2-3.2-2-6c0-10.2,0.3-22.2,1-36l1-18.3c0.1-3.4,0.3-7.7,0.6-12.8c-3.4,0.1-8,0.3-13.7,0.8l-3,0.3l-1.3,0.1
			c-2.1,0-3.8-0.7-5-2c-1.2-1.3-1.8-3.1-1.8-5.3c0-3.8,2.1-6,6.2-6.5c6.5-0.9,15.9-1.4,27.9-1.4c10.9,0,18.9,0.3,24,0.8
			C379.7,70.3,381.4,70.9,382.6,72z"/>
		<path class="st2" d="M466.2,110.9c0.2,13.3,0.3,26.1,0.3,38.5c0,2.8-0.7,4.8-2,6c-1.3,1.3-3.3,1.9-5.9,1.9c-2.6,0-4.5-0.6-5.8-1.8
			c-1.3-1.2-1.9-3.1-1.9-5.8v-4.9c-2.4,3.5-5.6,6.4-9.8,8.6c-4.2,2.2-9,3.3-14.5,3.3c-6.3,0-11.6-1.4-16-4.3
			c-4.4-2.9-7.7-6.8-9.9-11.7c-2.2-5-3.3-10.6-3.3-16.9c0-11.2,0.1-22.2,0.4-33.1l0.4-15.7c0.1-2,0.8-3.6,2.1-4.8
			c1.3-1.2,3.2-1.8,5.7-1.8c5,0,7.6,2.2,7.6,6.7c0,6.4-0.1,14.4-0.3,24.2c-0.2,9.7-0.3,18-0.3,24.7c0,6,1.5,10.6,4.4,13.9
			c2.9,3.3,6.8,5,11.6,5c3.6,0,7.1-1.2,10.5-3.7c3.4-2.4,6.1-5.6,8.2-9.6c2.1-4,3.1-8.2,3.1-12.8l-0.1-42.3c0-4.5,2.4-6.8,7.2-6.8
			c2.5,0,4.5,0.6,5.9,1.8c1.4,1.2,2.1,2.9,2.1,5.2c0,8.7,0.1,18.3,0.4,28.6C466.1,106.5,466.1,109.1,466.2,110.9z"/>
		<path class="st2" d="M552.3,148.1c0,2.1-0.7,3.9-1.9,5.4c-1.3,1.5-3,2.3-5.1,2.3c-1.1,0-2.2-0.2-3.4-0.6c-1.2-0.4-2.1-0.8-2.8-1.3
			l-35.5-22.2c-0.1,4.4-0.1,10.8-0.1,19.1c0,2.1-0.7,3.8-2,5c-1.3,1.3-3.1,1.9-5.5,1.9c-2.6,0-4.6-0.7-5.9-2.1c-1.3-1.4-2-3.4-2-5.8
			c0-12.8-0.1-26.3-0.3-40.3c0-5-0.1-10.7-0.3-17.2l-0.8,0.3c-0.5,0.2-0.9,0.3-1.1,0.3c-3.1,0-4.7-2.6-4.7-7.8
			c0-1.7,0.6-3.1,1.7-4.3c1.1-1.2,2.7-2.3,4.7-3.4v-1.9c0-4.6,2.9-6.9,8.8-6.9c3.9,0,5.9,0.8,6,2.5v0.5c6.2-1.8,11.3-2.8,15.2-2.8
			c7.4,0,13.8,1.2,19.3,3.5c5.5,2.3,9.6,5.5,12.6,9.6c2.9,4.1,4.4,8.9,4.4,14.2c0,5.6-1.6,10.4-4.8,14.4c-3.2,4-7.6,7-13.2,9
			c-5.5,2-11.7,3-18.6,3h-2.3l33.5,19.8C551,143.7,552.3,145.6,552.3,148.1z M503.1,85.7c0.3,9.1,0.5,17,0.5,23.8
			c3,0.6,7.1,0.9,12.3,0.9c6.5,0,11.5-1.2,15.2-3.7c3.7-2.5,5.5-5.9,5.5-10.3c0-4.1-1.7-7.4-5-9.9c-3.4-2.5-7.9-3.8-13.6-3.8
			C513.3,82.7,508.4,83.7,503.1,85.7z"/>
		<path class="st2" d="M639.3,149.8c0.3,0.8,0.4,1.4,0.4,2c0,2.1-0.9,3.7-2.6,4.8c-1.7,1.1-3.8,1.7-6.1,1.7c-1.8,0-3.4-0.4-4.8-1.1
			c-1.3-0.8-2.2-1.9-2.6-3.4l-4.8-17.4l-29.1-0.1c-0.6,2-1.2,3.9-1.7,5.7c-0.5,1.8-1,3.5-1.4,5l-1.9,6.4c-0.5,1.6-1.4,2.8-2.7,3.6
			c-1.3,0.8-2.8,1.2-4.6,1.2c-2.4,0-4.4-0.6-6.1-1.8c-1.7-1.2-2.6-2.7-2.6-4.7c0-0.4,0.1-1.1,0.3-2.1l17.9-53.6l4.4-13.5
			c1.8-5.5,3.7-9.4,5.8-11.7c2.1-2.3,4.8-3.5,8.2-3.5c3.3,0,5.9,1,7.8,3.1c1.9,2.1,3.7,5.7,5.4,10.9c3.6,10.9,7.8,24.6,12.7,41.2
			h3.5c1.8,0,3.1,0.6,4.2,1.8c1,1.2,1.5,2.9,1.5,5.2c0,4.7-1.5,7-4.4,7h-0.6L639.3,149.8z M614.9,122.4c-2.5-9.4-4.7-17.2-6.5-23.4
			c-0.2-0.6-0.3-1.1-0.5-1.5c-0.2-0.4-0.3-0.8-0.4-1.3c-0.7-2.3-1.2-4.1-1.6-5.2c-0.4-1.1-0.8-1.6-1.3-1.6c-0.4,0-0.8,0.5-1.3,1.6
			c-0.4,1.1-0.8,2.4-1.3,4c-0.4,1.7-0.7,2.8-0.9,3.3l-7.2,23.9L614.9,122.4z"/>
		<path class="st2" d="M210.7,179.9c5.5,4.2,8.2,10.1,8.2,17.7c0,5.4-1.4,10.1-4.1,14.2c-2.7,4.1-6.7,7.2-11.8,9.4
			c-5.1,2.2-11.1,3.3-17.9,3.3h-5.1c-1.8,0-3.1-0.3-4-0.9c-0.8-0.6-1.2-1.7-1.2-3.2c0-2.7,1.2-4,3.6-4h1.4l-1-36.2h-0.5
			c-1.1,0-2-0.3-2.6-0.9c-0.7-0.6-1-1.6-1-3c0-1.5,0.4-2.6,1.1-3.3c0.7-0.7,1.7-1,2.8-1h0.9c0.7-0.9,1.9-1.3,3.7-1.3
			c1.9,0,3.2,0.6,3.9,1.7C197.4,173.2,205.2,175.7,210.7,179.9z M199.7,213.3c3.1-1.6,5.6-3.7,7.4-6.4c1.8-2.7,2.7-5.8,2.7-9.3
			c0-9.7-7.2-15.4-21.5-17l0.9,35.6C193.1,215.8,196.6,214.9,199.7,213.3z"/>
		<path class="st2" d="M261.9,215.3c1.3,0,2.3,0.4,3,1.1c0.7,0.8,1.1,1.8,1.1,3.1c0,1.2-0.3,2.1-0.8,2.7c-0.6,0.6-1.4,1.1-2.6,1.3
			c-2.1,0.5-6.2,0.7-12.3,0.7h-2.3c-3,0-5.7-0.1-8.2-0.2c-2.5-0.1-5.6-0.4-9.1-0.9c-1.9-0.2-2.9-1.5-2.9-3.9c0-1.1,0.2-2.1,0.7-2.8
			c0.5-0.8,1.1-1.2,2-1.2h0.9c0.7-4.2,1-8.8,1-14h-0.7c-2.2,0-3.2-1.4-3.2-4.2c0-1.2,0.3-2.2,0.8-3c0.5-0.8,1.3-1.2,2.3-1.2h0.8V185
			v-4.6c-1.6-0.6-2.4-1.8-2.4-3.7c0-1.4,0.4-2.4,1.1-3.1c0.8-0.6,1.9-1,3.4-1.2c2.7-0.3,7.1-0.4,13.3-0.4c6.5,0,11.5,0.2,14.9,0.6
			c1.3,0.1,2.2,0.5,2.9,1.1c0.7,0.6,1.1,1.6,1.1,2.9c0,1.3-0.3,2.3-1,3.1c-0.7,0.8-1.5,1.1-2.6,1.1c-4.7-0.4-9-0.6-12.8-0.6
			c-3.5,0-6.4,0.1-8.8,0.2l0.2,8.3l0.1,4.3h2.8c3.8,0.1,6.4,0.2,7.9,0.2l5.8,0.1c1.8,0,2.6,1.3,2.6,4c0,1.3-0.3,2.3-0.8,3.1
			c-0.5,0.7-1.2,1.1-2.2,1.1c-1.6,0-2.9,0-3.9-0.1l-9.5-0.1h-2.7c-0.2,5.4-0.5,10.2-1.1,14.3c3,0.2,5.9,0.3,8.7,0.3
			c4.2,0,8.2-0.2,11.9-0.7L261.9,215.3z"/>
		<path class="st2" d="M363.7,235.9c0.2,7.6,0.3,13.4,0.3,17.6c0,2.4-0.7,4.2-2,5.5c-1.3,1.3-3.2,2-5.7,2c-2.4,0-4.3-0.7-5.7-2
			c-1.4-1.3-2.1-3.1-2.1-5.2c-0.1-8-0.1-19.6-0.1-34.7c0-10-0.3-17.5-0.9-22.5s-1.5-7.6-2.6-7.6c-1.6,0-4.4,5.4-8.4,16.2
			c-1.6,4.4-3.4,10.9-5.4,19.5c-0.9,3.8-3.7,5.7-8.4,5.7c-2.4,0-4.3-0.4-5.7-1.3c-1.4-0.9-2.4-2.2-3-4l-1.4-5.2
			c-2-7.4-3.5-12.3-4.4-14.9c-1.3-3.5-2.9-7.1-4.7-10.7c-1.8-3.6-3-5.4-3.7-5.4c-1.8,0-2.8,9.8-3.1,29.5c-0.1,2.9-0.1,6.8-0.1,11.8
			l0.1,23.8c0,1.9-0.7,3.5-2.1,4.6c-1.4,1.1-3.4,1.7-5.9,1.7c-2.5,0-4.4-0.6-5.7-2c-1.3-1.3-1.9-3.4-1.9-6.4c0-4,0.1-9.7,0.3-17.1
			l0.1-16.7c0-16.9,1.3-29.1,3.8-36.6c2.6-7.5,6.7-11.3,12.4-11.3c4.6,0,8.5,2.1,11.8,6.2c3.2,4.1,5.7,8.7,7.5,13.9
			c1.8,5.2,3.6,11.5,5.4,18.9c2.7-10.7,6-19.9,9.9-27.6c3.9-7.6,9.1-11.5,15.6-11.5c4,0,7.2,1.8,9.4,5.5c2.3,3.7,3.8,9,4.7,16
			c0.9,7,1.4,15.9,1.4,26.7C363.4,222.8,363.5,228.5,363.7,235.9z"/>
		<path class="st2" d="M450.9,214.1c0.2,13.3,0.3,26.1,0.3,38.5c0,2.8-0.7,4.8-2,6c-1.3,1.3-3.3,1.9-5.9,1.9s-4.5-0.6-5.8-1.8
			s-1.9-3.1-1.9-5.8v-4.9c-2.4,3.5-5.6,6.4-9.8,8.6c-4.2,2.2-9,3.3-14.5,3.3c-6.3,0-11.6-1.4-16-4.3c-4.4-2.9-7.7-6.8-9.9-11.7
			c-2.2-5-3.3-10.6-3.3-16.9c0-11.2,0.1-22.2,0.4-33.1l0.4-15.7c0.1-2,0.8-3.6,2.1-4.8c1.3-1.2,3.2-1.8,5.7-1.8c5,0,7.6,2.2,7.6,6.7
			c0,6.4-0.1,14.4-0.3,24.2c-0.2,9.7-0.3,18-0.3,24.7c0,6,1.5,10.6,4.4,13.9c2.9,3.3,6.8,5,11.6,5c3.6,0,7.1-1.2,10.5-3.7
			c3.4-2.4,6.1-5.6,8.2-9.6c2.1-4,3.1-8.2,3.1-12.8l-0.1-42.3c0-4.5,2.4-6.8,7.2-6.8c2.5,0,4.5,0.6,5.9,1.8c1.4,1.2,2.1,2.9,2.1,5.2
			c0,8.7,0.1,18.3,0.4,28.6C450.8,209.7,450.8,212.3,450.9,214.1z"/>
		<path class="st2" d="M552.1,235.9c0.2,7.6,0.3,13.4,0.3,17.6c0,2.4-0.7,4.2-2,5.5c-1.3,1.3-3.2,2-5.7,2c-2.4,0-4.3-0.7-5.7-2
			c-1.4-1.3-2.1-3.1-2.1-5.2c-0.1-8-0.1-19.6-0.1-34.7c0-10-0.3-17.5-0.9-22.5c-0.6-5-1.5-7.6-2.6-7.6c-1.6,0-4.4,5.4-8.4,16.2
			c-1.6,4.4-3.4,10.9-5.4,19.5c-0.9,3.8-3.7,5.7-8.4,5.7c-2.4,0-4.3-0.4-5.7-1.3c-1.4-0.9-2.4-2.2-3-4l-1.4-5.2
			c-2-7.4-3.5-12.3-4.4-14.9c-1.3-3.5-2.9-7.1-4.7-10.7c-1.8-3.6-3-5.4-3.6-5.4c-1.8,0-2.8,9.8-3.1,29.5c-0.1,2.9-0.1,6.8-0.1,11.8
			l0.1,23.8c0,1.9-0.7,3.5-2.1,4.6c-1.4,1.1-3.4,1.7-5.9,1.7c-2.5,0-4.4-0.6-5.7-2c-1.3-1.3-1.9-3.4-1.9-6.4c0-4,0.1-9.7,0.3-17.1
			l0.1-16.7c0-16.9,1.3-29.1,3.8-36.6c2.6-7.5,6.7-11.3,12.4-11.3c4.6,0,8.5,2.1,11.8,6.2c3.2,4.1,5.7,8.7,7.5,13.9
			c1.8,5.2,3.6,11.5,5.4,18.9c2.7-10.7,6-19.9,9.9-27.6c3.9-7.6,9.1-11.5,15.6-11.5c4,0,7.2,1.8,9.4,5.5c2.3,3.7,3.8,9,4.7,16
			c0.9,7,1.4,15.9,1.4,26.7C551.8,222.8,551.9,228.5,552.1,235.9z"/>
		<path class="st2" d="M639.3,214.1c0.2,13.3,0.3,26.1,0.3,38.5c0,2.8-0.7,4.8-2,6c-1.3,1.3-3.3,1.9-5.9,1.9c-2.6,0-4.5-0.6-5.8-1.8
			s-1.9-3.1-1.9-5.8v-4.9c-2.4,3.5-5.6,6.4-9.8,8.6c-4.2,2.2-9,3.3-14.5,3.3c-6.3,0-11.6-1.4-16-4.3c-4.4-2.9-7.7-6.8-9.9-11.7
			c-2.2-5-3.3-10.6-3.3-16.9c0-11.2,0.1-22.2,0.4-33.1l0.4-15.7c0.1-2,0.8-3.6,2.1-4.8c1.3-1.2,3.2-1.8,5.7-1.8c5,0,7.6,2.2,7.6,6.7
			c0,6.4-0.1,14.4-0.3,24.2c-0.2,9.7-0.3,18-0.3,24.7c0,6,1.5,10.6,4.4,13.9c2.9,3.3,6.8,5,11.6,5c3.6,0,7.1-1.2,10.5-3.7
			s6.1-5.6,8.2-9.6c2.1-4,3.1-8.2,3.1-12.8l-0.1-42.3c0-4.5,2.4-6.8,7.2-6.8c2.5,0,4.5,0.6,5.9,1.8c1.4,1.2,2.1,2.9,2.1,5.2
			c0,8.7,0.1,18.3,0.4,28.6C639.2,209.7,639.2,212.3,639.3,214.1z"/>
		<path class="st2" d="M224.6,247.8c37.6,21.9,53.9-5.4,53.9-5.4s2-0.7,5.6-2.7c3.6-2,0.5-3.8,0.5-3.8s-0.8,3.1-8.1,4.6
			C257.3,223.4,234.8,232.4,224.6,247.8z"/>
	</g>
</g>
<g id="Texto">
</g>
<g id="Anotaciones_para_Carmelo">
</g>
<g id="Cuadrícula" class="st13">
</g>
</svg>
